<svg width="208" height="138" viewBox="0 0 208 138" fill="none" xmlns="http://www.w3.org/2000/svg">
<path d="M54.1547 0.198253C53.5081 -0.126185 52.7765 -0.0316229 52.0215 0.330841C47.1726 2.65842 43.7601 7.45862 38.7695 9.46191C34.4222 11.207 31.3544 15.623 29.5663 19.3355C28.3221 21.9187 28.7171 25.3969 26.6121 27.3385C26.1812 27.7361 25.6277 27.9892 24.9229 27.9892C21.8459 27.9892 6.46074 54.2362 3.38371 63.4998C0.306688 72.7635 1.84523 68.1317 0.306717 80.4832C0.00427484 82.9113 -0.0566337 85.0162 0.0463785 86.8254C0.414488 93.2905 4.60283 99.185 6.86859 105.248L7.99928 108.274C8.51212 109.303 11.0763 112.288 17.2304 115.994C19.9546 117.634 22.3774 119.738 24.3652 121.798C28.1637 125.733 28.2557 135.107 33.1564 137.521C36.8182 139.325 38.3351 135.584 37.5945 131.559C37.4991 131.04 37.3792 130.484 37.231 129.889C36.2269 125.859 37.2024 120.184 38.1527 116.554C38.5226 115.141 39.0946 113.787 39.7617 112.488C48.4409 95.5887 54.2104 91.1788 55.6932 88.2029C56.3009 86.983 56.4716 80.4065 56.7311 79.0678C57.0342 77.5045 57.2317 75.4461 57.2317 72.7635C57.2317 68.2382 58.0746 63.5155 59.0987 59.5252C60.4674 54.1919 58.8194 46.4835 63.3857 43.4286C65.4314 42.06 67.2568 38.7326 68.6524 35.3367C70.4784 30.8937 68.6045 26.1121 66.4627 21.8134C65.2319 19.3431 69.0269 13.5791 71.0783 11.0059C72.104 9.97656 72.6168 7.60918 66.4627 6.37402C58.7702 4.83006 57.2317 1.74219 54.1547 0.198253Z" fill="#392A93"/>
<path d="M130.062 104.594H122.064V97.8054H117.321V104.594H109.212V99.2956H104.524V108.624H130.062V110.224H134.695V99.1853H130.062V104.594ZM138.17 69.3249V72.6366H114.342V69.3249H138.17ZM114.342 79.2047V76.0034H138.17V79.2047H114.342ZM151.518 90.1885V86.2697H114.342V82.9028H143.3V65.6268H127.194C127.911 64.4125 128.683 63.0879 129.235 61.708L123.222 61.156C122.947 62.4255 122.395 64.1366 121.843 65.6268H109.267V97.0327H144.293C143.686 103.601 143.024 106.305 142.197 107.133C141.811 107.575 141.314 107.74 140.487 107.74C139.659 107.74 137.729 107.685 135.633 107.464C136.295 108.679 136.736 110.555 136.846 111.88C139.384 111.99 141.645 111.99 142.914 111.825C144.348 111.714 145.451 111.328 146.389 110.224C147.823 108.734 148.65 104.705 149.422 95.1008C149.533 94.4937 149.588 93.169 149.588 93.169H114.342V90.1885H151.518Z" fill="#392A93"/>
<path d="M175.016 78.3216C175.016 84.6138 174.464 93.6106 169.555 100.124C170.548 100.731 172.037 102.111 172.754 102.938C177.387 97.0878 178.711 89.1398 179.042 82.4612H183.51C183.069 94.0521 182.627 98.3021 181.8 99.2956C181.469 99.9028 181.028 100.013 180.421 100.013C179.759 100.013 178.49 100.013 177.001 99.8476C177.553 101.007 177.994 102.773 178.049 104.042C179.869 104.098 181.524 104.098 182.572 103.932C183.896 103.766 184.723 103.325 185.606 102.166C186.874 100.455 187.371 95.156 187.978 80.143V78.2112H179.097V72.9125H188.253C187.757 73.6301 187.316 74.2924 186.819 74.8995C187.867 75.5619 189.632 76.8866 190.405 77.6593L190.846 77.0521V79.3703H199.616C198.458 80.695 197.079 82.0197 195.865 82.9028V86.4353H189.026V90.5197H195.865V98.9093C195.865 99.4612 195.7 99.6268 195.038 99.6268C194.431 99.6268 192.39 99.6268 190.184 99.5716C190.846 100.786 191.508 102.607 191.728 103.822C194.817 103.822 196.913 103.766 198.402 103.049C199.892 102.387 200.223 101.062 200.223 98.9645V90.5197H207.173V86.4353H200.223V84.0619C202.484 82.1301 204.801 79.7015 206.621 77.3833L203.808 75.2859L202.981 75.5067H191.839C192.611 74.2372 193.273 72.9125 193.935 71.4775H207.228V67.2275H195.7C196.306 65.6268 196.913 63.9158 197.299 62.2599L192.997 61.0457C192.059 65.0749 190.515 69.1041 188.64 72.2502V68.6073H183.069L183.344 68.5521C182.848 66.6203 181.69 63.6398 180.642 61.3768L176.174 62.2047C177.001 64.1918 177.884 66.7307 178.38 68.6073H170.493V72.9125H175.016V78.3216ZM168.948 69.8768C167.624 67.6138 164.977 64.0814 162.715 61.432L158.744 63.5294C160.895 66.234 163.543 70.0976 164.811 72.4158L168.948 69.8768ZM168.562 87.3736L167.79 87.484H163.377C166.245 83.7307 169.886 78.2112 171.982 75.0651L168.617 73.6853L167.9 74.0164H157.2V78.156H164.977C162.881 81.3573 160.233 85.1658 159.185 86.2697C158.248 87.3184 157.42 87.7047 156.538 87.9255C157.034 88.8638 157.972 91.182 158.248 92.3411C158.744 91.8995 160.178 91.5132 161.557 91.5132H165.694C164.149 99.5164 160.84 105.367 156.152 108.624C157.144 109.341 158.854 111.052 159.516 112.156C162.109 110.114 164.37 107.409 166.19 103.822C170.493 110.003 177.167 111.107 187.922 111.107C194.1 111.107 200.995 110.942 206.345 110.611C206.621 109.286 207.228 106.968 208 105.864C202.153 106.416 193.769 106.692 187.978 106.692C178.049 106.692 171.43 105.809 168.066 99.5716C169.279 96.2599 170.217 92.5067 170.824 88.2567L168.562 87.3736Z" fill="#392A93"/>
<path d="M107.527 26.543H102.141V23.8108H116.041V26.543H110.655V41.3959H107.527V26.543Z" fill="#9086CC"/>
<path d="M122.957 39.8808H122.883C122.585 40.4107 122.105 40.8495 121.443 41.1972C120.781 41.5284 120.029 41.6939 119.185 41.6939C118.705 41.6939 118.2 41.6277 117.671 41.4952C117.158 41.3793 116.678 41.1806 116.231 40.8991C115.801 40.6011 115.437 40.2202 115.139 39.7566C114.857 39.2764 114.717 38.6886 114.717 37.9931C114.717 37.099 114.965 36.387 115.461 35.8571C115.974 35.3272 116.628 34.9215 117.422 34.64C118.217 34.3586 119.094 34.1764 120.053 34.0936C121.03 33.9943 121.981 33.9446 122.908 33.9446V33.6465C122.908 32.9014 122.635 32.355 122.089 32.0073C121.559 31.643 120.922 31.4608 120.177 31.4608C119.549 31.4608 118.945 31.5933 118.366 31.8582C117.786 32.1232 117.306 32.4461 116.926 32.8269L115.387 31.0137C116.065 30.3845 116.843 29.9126 117.72 29.598C118.614 29.2834 119.516 29.1261 120.426 29.1261C121.485 29.1261 122.353 29.2751 123.032 29.5732C123.727 29.8712 124.273 30.2603 124.67 30.7405C125.067 31.2207 125.34 31.7589 125.489 32.355C125.655 32.9511 125.737 33.5472 125.737 34.1433V41.3959H122.957V39.8808ZM122.908 35.9564H122.238C121.758 35.9564 121.253 35.9813 120.724 36.031C120.194 36.0641 119.706 36.1551 119.259 36.3042C118.812 36.4366 118.44 36.6353 118.142 36.9003C117.844 37.1486 117.695 37.4964 117.695 37.9435C117.695 38.2249 117.753 38.465 117.869 38.6637C118.001 38.8459 118.167 38.9949 118.366 39.1108C118.564 39.2267 118.787 39.3095 119.036 39.3592C119.284 39.4089 119.532 39.4337 119.78 39.4337C120.806 39.4337 121.584 39.1605 122.113 38.6141C122.643 38.0676 122.908 37.3225 122.908 36.3787V35.9564Z" fill="#9086CC"/>
<path d="M129.257 29.4738H132.236V41.3959H129.257V29.4738ZM128.835 25.4253C128.835 24.9451 129.009 24.5311 129.356 24.1834C129.72 23.8191 130.175 23.637 130.722 23.637C131.268 23.637 131.723 23.8108 132.087 24.1586C132.467 24.4897 132.658 24.912 132.658 25.4253C132.658 25.9386 132.467 26.3691 132.087 26.7168C131.723 27.048 131.268 27.2136 130.722 27.2136C130.175 27.2136 129.72 27.0397 129.356 26.692C129.009 26.3277 128.835 25.9055 128.835 25.4253Z" fill="#9086CC"/>
<path d="M134.161 29.4738H137.388L139.87 38.018H139.92L142.476 29.4738H145.653L148.235 38.018H148.284L150.816 29.4738H153.919L149.798 41.3959H146.77L144.065 33.0504H144.015L141.334 41.3959H138.306L134.161 29.4738Z" fill="#9086CC"/>
<path d="M163.195 39.8808H163.12C162.822 40.4107 162.342 40.8495 161.68 41.1972C161.019 41.5284 160.266 41.6939 159.422 41.6939C158.942 41.6939 158.437 41.6277 157.908 41.4952C157.395 41.3793 156.915 41.1806 156.468 40.8991C156.038 40.6011 155.674 40.2202 155.376 39.7566C155.095 39.2764 154.954 38.6886 154.954 37.9931C154.954 37.099 155.202 36.387 155.699 35.8571C156.212 35.3272 156.865 34.9215 157.659 34.64C158.454 34.3586 159.331 34.1764 160.29 34.0936C161.267 33.9943 162.218 33.9446 163.145 33.9446V33.6465C163.145 32.9014 162.872 32.355 162.326 32.0073C161.796 31.643 161.159 31.4608 160.415 31.4608C159.786 31.4608 159.182 31.5933 158.603 31.8582C158.024 32.1232 157.544 32.4461 157.163 32.8269L155.624 31.0137C156.303 30.3845 157.08 29.9126 157.957 29.598C158.851 29.2834 159.753 29.1261 160.663 29.1261C161.722 29.1261 162.591 29.2751 163.269 29.5732C163.964 29.8712 164.51 30.2603 164.907 30.7405C165.304 31.2207 165.577 31.7589 165.726 32.355C165.892 32.9511 165.975 33.5472 165.975 34.1433V41.3959H163.195V39.8808ZM163.145 35.9564H162.475C161.995 35.9564 161.49 35.9813 160.961 36.031C160.431 36.0641 159.943 36.1551 159.496 36.3042C159.049 36.4366 158.677 36.6353 158.379 36.9003C158.081 37.1486 157.933 37.4964 157.933 37.9435C157.933 38.2249 157.99 38.465 158.106 38.6637C158.239 38.8459 158.404 38.9949 158.603 39.1108C158.801 39.2267 159.025 39.3095 159.273 39.3592C159.521 39.4089 159.769 39.4337 160.017 39.4337C161.043 39.4337 161.821 39.1605 162.351 38.6141C162.88 38.0676 163.145 37.3225 163.145 36.3787V35.9564Z" fill="#9086CC"/>
<path d="M169.445 29.4738H172.274V31.3863H172.324C172.589 30.7902 173.044 30.2686 173.689 29.8215C174.351 29.3579 175.129 29.1261 176.022 29.1261C176.8 29.1261 177.462 29.2668 178.008 29.5483C178.57 29.8133 179.026 30.1693 179.373 30.6163C179.737 31.0634 180.002 31.5767 180.167 32.1563C180.333 32.7358 180.415 33.3319 180.415 33.9446V41.3959H177.437V34.7891C177.437 34.4413 177.412 34.0771 177.362 33.6962C177.313 33.3154 177.205 32.9759 177.04 32.6779C176.874 32.3633 176.643 32.1066 176.345 31.9079C176.064 31.7092 175.683 31.6099 175.203 31.6099C174.723 31.6099 174.31 31.7092 173.962 31.9079C173.615 32.09 173.325 32.3301 173.093 32.6282C172.878 32.9262 172.713 33.274 172.597 33.6714C172.481 34.0522 172.423 34.4413 172.423 34.8387V41.3959H169.445V29.4738Z" fill="#9086CC"/>
</svg>
